<svg id="Layer_2" xmlns="http://www.w3.org/2000/svg" viewBox="0 0 375.53 597.7"><g id="Layer_1-2"><path d="M332.93,187.07h42.6v-25.16h-42.62c-.27-54.52-12.45-93.03-55.87-129.69C243.81,.9,185.68-14.74,154.25,18.74c-17.61,16.41,10.39,59.51,31.35,43.18,88.49-79.68,92.17,17.16,92.22,100H42.6v206.11c0,23.53-19.07,42.6-42.6,42.6v25.16H42.62c.27,54.71,12.44,93.03,55.87,129.69,33.23,31.32,91.35,46.96,122.78,13.49,17.61-16.41-10.39-59.51-31.35-43.18-88.49,79.68-92.17-17.16-92.22-99.99H375.53v-25.16c-23.53,0-42.6-19.07-42.6-42.6V187.07Zm-55.11,3.42s-.5,113.56-.77,177.74c-.1,23.46-19.14,42.39-42.6,42.39H97.71s.93-211.77,.93-223.56h179.18v3.42Z"/></g></svg>